<?xml version="1.0" encoding="UTF-8" standalone="no"?>
<!-- Created with Inkscape (http://www.inkscape.org/) -->

<svg
   width="1920"
   height="1080"
   viewBox="0 0 508 285.75"
   version="1.1"
   id="svg1"
   xmlns="http://www.w3.org/2000/svg"
   xmlns:svg="http://www.w3.org/2000/svg">
  <defs
     id="defs1" />
  <g
     id="layer1">
    <path
       id="path1-8-2"
       style="fill:#004d71;fill-opacity:1;stroke-width:2.53768;stroke-linecap:round;stroke-linejoin:round;paint-order:stroke fill markers"
       d="M 0,0 V 285.75 H 508 V 80.696883 A 576.09583,356.04678 0 0 0 422.42434,0 Z" />
    <path
       id="path1-8-1"
       style="fill:#2e2926;fill-opacity:1;stroke-width:2.34251;stroke-linecap:round;stroke-linejoin:round;paint-order:stroke fill markers"
       d="M 0,0 V 285.75 H 448.86407 A 531.78577,328.66168 0 0 0 474.84905,184.26886 531.78577,328.66168 0 0 0 383.40502,0 Z" />
    <path
       id="path1-8"
       style="fill:#ffc46c;fill-opacity:1;stroke-width:1.61732;stroke-linecap:round;stroke-linejoin:round;paint-order:stroke fill markers"
       d="M 0,0 V 285.75 H 363.09567 A 367.15836,226.91635 0 0 0 452.88967,137.06915 367.15836,226.91635 0 0 0 378.3366,0 Z" />
    <path
       id="path1"
       style="fill:#00bef2;fill-opacity:1;stroke-width:1.51199;stroke-linecap:round;stroke-linejoin:round;paint-order:stroke fill markers"
       d="M 0,0 V 285.75 H 223.79306 A 340.37943,213.92287 0 0 0 399.33221,98.586747 340.37943,213.92287 0 0 0 361.03171,0 Z" />
  </g>
</svg>
