<svg xmlns="http://www.w3.org/2000/svg" width="348.354" height="135" viewBox="0 0 326.584 126.561"><path fill="#666" d="M81.558.001c-1.478.276-2.83.976-4.271 1.424-20.014 6.922-39.895 13.739-59.935 20.637-.26.089-.69-.246-.857-.062-1.198 1.135-2.34 2.6-3.02 4.174-.518.627-.76 1.522-1.014 2.306-.21.334-.356.744-.358 1.146-1.385 4.447-.869 9.55.803 13.866.039.55.274 1.066.562 1.526.231.857.712 1.673 1.176 2.43.57.187 1.302.459 1.904.502a2.26 2.26 0 0 0 .25.004c1.027.36 2.15.649 3.233.799.071.03.145.06.219.088.37.14.77.245 1.18.34.327.076.662.146.994.221.333.076.663.159.982.26a7.003 7.003 0 0 1 .468.17c-.05.007-.106.001-.16.005a.27.27 0 0 0-.077.015.153.153 0 0 0-.064.045h-.001a7.984 7.984 0 0 0-1.335.289c-.14.046-.273.097-.396.153h.001a.572.572 0 0 0-.276.081c-.603.021-1.626.364-2.258.569h-.002a8.814 8.814 0 0 0-.85.164c-.189.047-.376.098-.562.153-.279.082-.554.171-.822.26h-.001.001c-.109.016-.218.033-.329.052-.663.111-1.351.276-1.965.489a8.35 8.35 0 0 0-.3.11c-.659.092-1.323.315-1.945.499-.12.017-.245.033-.371.052-.315.048-.636.11-.915.234-.055.024-.11.051-.161.081-.854.143-1.715.34-2.522.642-.746.071-1.45.379-2.192.481a3.53 3.53 0 0 1-.32.03c-.28-.309-.423.091-.581.292C2.11 58.363-.306 63.384.078 68.576c-.082.205-.075.534-.034.864a5.808 5.808 0 0 0 .08.482c.03.15.061.286.087.391.479 4.335 2.557 8.586 5.554 11.77 2.805 1.089 5.594 2.266 8.434 3.234-.365.988-2.126.866-2.607 1.95-2.073 2.18-3.504 5.03-3.962 7.996-.342 1.136-.33 2.613-.213 3.698.125 4.292 2.185 8.31 4.659 11.733 7.006 1.22 14.074 2.406 21.052 3.496h.002c.069.023.143.045.223.066.319.083.712.15 1.107.2a16.94 16.94 0 0 0 .86.09c8.217 1.43 16.48 2.833 24.746 4.106h.003a48.044 48.044 0 0 0 2.557.495c.876.145 1.764.27 2.625.372h.004c6.643 1.158 13.309 2.318 19.99 3.307.59.245 1.45.346 2.152.372 6.654 1.212 13.36 2.254 20.037 3.364 17.309-16.417 34.537-32.927 51.817-49.385 1.109-1.032.172-3.079-1.137-3.1a1.413 1.413 0 0 0-.756.215c-.17.01-.256-.034-.306-.108a.36.36 0 0 1-.04-.084c-.043-.123-.054-.29-.15-.447a15.177 15.177 0 0 1-.902-3.19 17.927 17.927 0 0 1-.142-.986c-.038-.33-.068-.661-.09-.993-.03-.443-.045-.887-.048-1.332-.01-1.333.09-2.668.25-3.972.397-1.746.502-3.73 1.215-5.34 1.007-1.001 2.957-1.908 2.501-3.633-.082-.778-.903-1.34-1.656-1.324-.343.008-.67.135-.91.417-.253.154-.54.201-.84.199-.05 0-.1-.002-.151-.005-.456-.026-.934-.145-1.366-.166-1.59-.046-3.267-.369-4.825-.379a9.968 9.968 0 0 0-.66.016 2.076 2.076 0 0 0-.164-.164c.574-1.115.664-2.737 1.003-4.053.812-.232 1.759-.37 2.316-1.083.427-.785.342-2.042-.497-2.511a1.528 1.528 0 0 0-.155-.115 2.098 2.098 0 0 0-.721-.277 3.685 3.685 0 0 0-.403-.062 7.183 7.183 0 0 0-.206-.019c-.555-.044-1.132-.039-1.619-.175-.428-.24-1.123-.26-1.649-.299h-.001c-.53-.187-1.105-.25-1.664-.28-.448-.247-1.134-.241-1.665-.28a22.767 22.767 0 0 0-2.108-.432 64.315 64.315 0 0 0-2.137-.298c-.863-.31-1.957-.373-2.893-.513h-.002l-.428-.069c-.512-.22-1.213-.215-1.797-.364.636-.382 1.62-.453 2.22-.948.652-.12 1.396-.357 1.959-.71 1.608-.481 3.212-1.135 4.766-1.795a66.908 66.908 0 0 0 2.68-.94c.905-.34 1.804-.706 2.648-1.086a.41.41 0 0 0 .212-.062c1.07-.385 2.354-.635 3.196-1.36.725-.519.77-1.738.21-2.41a1.31 1.31 0 0 0-.545-.556 1.546 1.546 0 0 0-1.284-.106c-.298.073-.11-.324-.285-.468-1.435-4.295-1.999-8.826-1.383-13.338a26.443 26.443 0 0 1 .23-1.4c.389-1.123.55-2.416 1.102-3.514.794-.448 1.946-.441 2.452-1.296.397-.476.522-1.328.145-1.834-.18-.932-1.396-1.3-2.189-.918C127.616 6.154 104.551 2.94 81.558.002zm.488.19.082.008.049.006-.01-.001-.102-.01-.02-.002zM12.99 27.34zm-1.531 6.633zm-.01 1.758zm3.081 11.368zM6.774 58.29zM4.73 61.66zm7.362 30.506zm-1.319 3.89zm-.05 3.602z"/><path fill="#c1187c" d="M158.048 52.881c-.342.008-.67.135-.909.416-.676.412-1.59.067-2.358.03-1.589-.047-3.267-.37-4.825-.38a9.965 9.965 0 0 0-.66.016c-.323 2.532-.546 5.11-.189 7.648.124 1.263.43 2.497.767 3.718 2.534-2.035 4.827-4.401 7.33-6.49 1.006-1.002 2.957-1.909 2.5-3.634-.082-.778-.903-1.34-1.656-1.324zm-18.446 20.746c-2.696.805-5.35 1.799-8.01 2.732-18.178 6.225-36.333 12.533-54.495 18.802-2.367.831-4.76 1.6-7.107 2.485 12.495 1.757 25.01 3.39 37.51 5.111 10.684-9.725 21.496-19.341 32.102-29.13zm18.57.448a1.414 1.414 0 0 0-.755.215c-16.937 16.034-33.73 32.23-50.677 48.248-.166.382-.563.297-.891.181-30.623-5.132-61.264-10.182-91.895-15.292-2.384-3.503-4.022-7.917-2.957-12.172.415-1.898 1.318-3.753 2.632-5.165 6.49.8 12.968 1.774 19.46 2.59-4.476-1.887-9.088-3.572-13.627-5.35-1.729-.686-3.459-1.386-5.207-2.016-.365.988-2.126.866-2.607 1.95-2.072 2.18-3.504 5.03-3.962 7.996-.138 1.229-.263 2.46-.213 3.698.125 4.293 2.186 8.311 4.659 11.734 7.006 1.22 14.074 2.405 21.053 3.495.73.047 1.49.175 2.192.356 8.216 1.43 16.479 2.833 24.745 4.106 1.733.242 3.48.524 5.188.869 6.643 1.157 13.31 2.318 19.992 3.307.72.087 1.451.2 2.15.372 6.655 1.212 13.362 2.253 20.038 3.363 17.309-16.416 34.536-32.926 51.817-49.384 1.11-1.032.173-3.08-1.137-3.101z"/><path fill="#ee3996" d="M149.897 52.947a9.965 9.965 0 0 0-.66.016c-.323 2.532-.546 5.11-.189 7.648 2.632-2.481 5.38-4.86 8.032-7.314-.676.411-1.59.067-2.358.03-1.589-.048-3.266-.37-4.825-.38zm-18.365 23.412C113.355 82.584 95.2 88.892 77.038 95.161c9.76 1.268 19.507 2.637 29.262 3.937.215.046.348-.194.503-.3 8.236-7.484 16.568-14.89 24.73-22.439zM14.198 85.314c-.365.988-2.127.866-2.608 1.95.499-.427.96-1.031 1.714-.775 2.033.286 4.072.526 6.1.84-1.728-.685-3.458-1.385-5.206-2.015z"/><path fill="#106190" d="M134.173 42.029c-.293.02-.56.144-.824.257-17.485 6.607-34.969 13.215-52.457 19.813-.887.272-1.717.818-2.654.862-17.985-4.398-35.968-8.803-53.954-13.198-.119.033-.239.068-.363.067-.1.015-.228-.02-.302.066-.512.288-1.163.303-1.731.443a.572.572 0 0 0-.275.08c-.707.32-1.507.405-2.26.57-.756.1-1.52.338-2.234.577-.81.323-1.732.461-2.595.65-.658.092-1.322.315-1.945.499-.406.276-.977.243-1.446.368-.854.142-1.716.34-2.523.64-.73.34-1.588.405-2.37.603a9.67 9.67 0 0 0-.142-.09c-.28-.31-.423.09-.58.291C2.157 58.362-.26 63.384.123 68.575c.064.575.126 1.156.133 1.737.48 4.335 2.558 8.586 5.555 11.77 2.805 1.089 5.593 2.265 8.434 3.233 1.747.63 3.478 1.33 5.206 2.016 4.54 1.778 9.151 3.463 13.627 5.35 7.8 2.904 15.539 6.012 23.31 9.008.401.155.804.361 1.247.228 4.094-1.477 8.217-2.882 12.342-4.27 2.347-.884 4.74-1.654 7.107-2.485 18.162-6.27 36.317-12.577 54.495-18.802 2.66-.934 5.314-1.927 8.01-2.732 2.473-.98 5.03-1.742 7.53-2.653 1.548-.538 3.107-1.051 4.644-1.62 1.023-.55 1.105-2.002.4-2.85-.473-.305-1.007-.588-1.583-.375-31.03 10.723-62.067 21.435-93.095 32.156a1.376 1.376 0 0 1-.615-.109c-.226-.086-.449-.177-.673-.263-16.18-6.314-32.385-12.57-48.562-18.89-3.791-4.29-5.513-10.69-3.36-16.146.586-1.659 1.513-3.174 2.545-4.59C23.5 65.174 40.193 72.028 56.88 78.893c31.079-10.048 62.147-20.157 93.244-30.145.812-.232 1.759-.37 2.316-1.083.427-.784.342-2.042-.497-2.511-.795-.67-2.131-.375-3.104-.648a10.602 10.602 0 0 1-1.65-.298c-.53-.188-1.105-.252-1.665-.281-.559-.066-1.123-.123-1.664-.28-1.377-.358-2.83-.55-4.245-.73-.967-.145-1.958-.27-2.896-.513l-.427-.068c-.718-.025-1.41-.227-2.119-.307z"/><path fill="#127ab9" d="M133.307 42.285c.265-.113.531-.238.824-.258.71.08 1.4.282 2.119.307l.427.068c.938.243 1.93.368 2.896.513 1.414.18 2.868.372 4.244.73.541.157 1.106.214 1.665.28.56.03 1.134.093 1.664.28.533.145 1.095.24 1.65.3.974.272 2.31-.023 3.104.647-.358-.182-.742-.323-1.152-.26a333312.987 333312.987 0 0 0-93.43 30.61c-.19.018-.36-.102-.533-.16A46970.406 46970.406 0 0 0 9.147 55.608c-.974-.452-2.014-.756-2.952-1.284.782-.198 1.64-.263 2.37-.603.807-.3 1.669-.498 2.523-.64.47-.126 1.04-.092 1.446-.369.623-.183 1.287-.407 1.945-.498.863-.19 1.785-.328 2.595-.65.714-.24 1.478-.477 2.234-.578.753-.164 1.552-.25 2.26-.569a.572.572 0 0 1 .275-.08c.568-.14 1.219-.156 1.731-.444.074-.086.202-.05.302-.065.124 0 .244-.035.363-.067 17.986 4.395 35.97 8.8 53.954 13.197.937-.044 1.767-.589 2.654-.86 17.489-6.6 34.972-13.207 52.457-19.814z"/><path fill="#76ae35" d="M81.374.15c-.053 0-.105.001-.158.003C60.32 7.457 39.364 14.59 18.44 21.803c-.436.15-.87.333-1.34.34a5.568 5.568 0 0 1-.573-.146c-1.198 1.135-2.34 2.6-3.02 4.174-.334.766-.618 1.576-1.014 2.307-.21.334-.356.743-.358 1.146-1.186 4.565-.706 9.434.803 13.866.039.55.274 1.066.562 1.527.468.744.729 1.633 1.247 2.36.646.316 1.434.263 2.082.575 1.028.36 2.15.649 3.234.799 1.41.294 2.813.643 4.207 1.011 17.986 4.395 35.97 8.8 53.954 13.198.937-.044 1.767-.59 2.654-.862 17.489-6.598 34.972-13.206 52.457-19.813.265-.113.53-.237.824-.257.808-.419 1.683-.704 2.542-1.007.642-.257 1.285-.546 1.958-.71 1.608-.48 3.213-1.135 4.766-1.794 1.728-.747 3.54-1.414 5.328-2.026a.41.41 0 0 0 .213-.063c1.007-.561 2.204-.75 3.195-1.359.726-.52.77-1.738.21-2.41-.479-.5-1.217-.848-1.9-.53-23.993 9.05-47.978 18.127-71.969 27.182-.48.124-.994-.104-1.457-.218-19.999-4.877-39.992-9.778-59.983-14.673-.396.03-.368-.411-.519-.645-1.979-4.49-2.684-9.77-.876-14.43.438-1.125 1.043-2.187 1.734-3.176.13-.399.547-.233.841-.188 19.684 4.72 39.367 9.445 59.05 14.172.23.023.44-.107.653-.178 24.585-9.125 49.174-18.243 73.758-27.368.366-.127.669-.378.96-.628.397-.475.52-1.327.144-1.833-.41-.735-1.304-1.236-2.125-.83-22.327-2.888-44.62-6.077-66.955-8.92C82.946.318 82.168.15 81.383.15z"/><path fill="#a4ce3c" d="M81.23.153c.839-.026 1.668.16 2.501.243 22.336 2.843 44.63 6.032 66.957 8.92.14.118.92.014.76.286-24.623 9.026-49.266 18-73.89 27.028a1.25 1.25 0 0 1-.775.008c-19.62-4.71-39.238-9.436-58.859-14.145-.278-.087-.625-.093-.813-.35.47-.007.904-.19 1.34-.34C39.378 14.589 60.334 7.457 81.23.153z"/><path fill="#e7d9b9" d="M81.552 0c-1.478.275-2.83.975-4.271 1.423-20.014 6.922-39.894 13.739-59.938 20.636-.259.089-.69-.246-.857-.062.189.059.38.108.574.147.47-.008.904-.19 1.34-.342C39.325 14.59 60.281 7.457 81.175.152c.84-.025 1.668.161 2.502.244 22.336 2.843 44.63 6.032 66.954 8.92.822-.406 1.716.095 2.126.83-.18-.932-1.396-1.3-2.188-.918-22.966-3.077-46.032-6.293-69.026-9.23zm71.069 11.98c-.29.25-.593.5-.96.627-24.584 9.125-49.172 18.243-73.757 27.368-.213.071-.423.202-.654.178C57.568 35.426 37.885 30.7 18.2 25.98c-.294-.045-.71-.21-.842.188-.69.989-1.295 2.051-1.734 3.177-1.807 4.659-1.102 9.94.877 14.429.151.234.123.674.518.645 19.994 4.895 39.987 9.796 59.984 14.673.462.114.977.342 1.457.218 23.993-9.056 47.978-18.131 71.969-27.183.683-.317 1.42.03 1.9.531-.316-.637-1.175-.917-1.829-.662-.298.073-.11-.325-.285-.469-1.584-4.739-2.106-9.766-1.154-14.737.39-1.124.551-2.417 1.103-3.515.793-.448 1.945-.441 2.452-1.297zM13.473 26.17c-.519.628-.761 1.524-1.014 2.308.396-.73.68-1.541 1.014-2.307zm2.368 3.049-.01.003.01-.003zm-.035.013-.013.006.013-.006zm-.034.018zm-.075.053-.025.017.025-.017zm-3.596.32c-1.386 4.447-.87 9.55.802 13.867-1.509-4.431-1.989-9.3-.802-13.866zm140.025 5.446c-.99.609-2.187.798-3.195 1.359 1.069-.385 2.353-.635 3.195-1.36zm-3.408 1.422c-1.787.612-3.6 1.28-5.327 2.026 1.732-.567 3.64-1.266 5.327-2.026zm-10.094 3.82c-.673.164-1.315.453-1.958.71.652-.119 1.396-.357 1.958-.71zm-1.958.71c-.859.302-1.734.588-2.542 1.006.71.08 1.4.282 2.119.307-.512-.221-1.213-.215-1.797-.365.635-.382 1.62-.453 2.22-.948zm.004 1.381c.938.244 1.93.368 2.896.513-.864-.31-1.959-.373-2.896-.513zm7.14 1.244c.542.156 1.106.213 1.665.28-.448-.248-1.133-.242-1.664-.28zm3.33.56c.532.145 1.094.24 1.65.298-.429-.24-1.124-.26-1.65-.298zm-133.672.81c.23.857.711 1.673 1.175 2.43.652.213 1.515.538 2.153.506-.647-.312-1.436-.26-2.082-.576-.518-.726-.778-1.615-1.247-2.36zm136.609 3.73c-31.094 9.988-62.165 20.097-93.245 30.146-16.687-6.867-33.38-13.72-50.059-20.604-1.031 1.415-1.958 2.93-2.544 4.589-2.154 5.457-.432 11.857 3.36 16.146 16.177 6.32 32.381 12.577 48.562 18.89.224.086.447.177.673.263.196.08.398.124.615.11 31.03-10.722 62.067-21.433 93.094-32.156.576-.214 1.11.069 1.583.374.705.848.624 2.3-.4 2.851-1.536.568-3.095 1.08-4.643 1.619-2.5.91-5.057 1.673-7.53 2.653-10.606 9.789-21.419 19.405-32.102 29.13-12.5-1.721-25.015-3.353-37.51-5.11-4.125 1.387-8.249 2.792-12.342 4.269-.444.133-.846-.072-1.247-.227-7.772-2.997-15.51-6.105-23.31-9.01-6.492-.815-12.97-1.788-19.46-2.589-1.314 1.413-2.218 3.267-2.632 5.166-1.066 4.255.572 8.668 2.957 12.172 30.628 5.11 61.27 10.16 91.894 15.292.329.115.726.2.892-.181 16.947-16.019 33.74-32.214 50.676-48.248-.455.024-.303-.324-.497-.639-1.352-3.3-1.36-6.995-.93-10.473.396-1.746.5-3.73 1.214-5.34-2.502 2.09-4.795 4.456-7.33 6.49-.336-1.22-.643-2.455-.766-3.718-.357-2.538-.134-5.115.189-7.647a2.074 2.074 0 0 0-.164-.165c.574-1.114.665-2.736 1.004-4.053zm-130.049.005c1.149.497 2.623.581 3.844 1.078.125 0 .245-.035.364-.067a81.834 81.834 0 0 0-4.208-1.011zm3.543 1.144c-.582.081-1.24.215-1.731.443.568-.14 1.219-.156 1.73-.443zm-2.006.523c-.604.021-1.629.365-2.26.57.752-.165 1.552-.25 2.26-.57zm-4.495 1.146c-.868.125-1.812.346-2.594.651.863-.189 1.784-.327 2.594-.65zm-4.539 1.15c-.482.068-1.033.128-1.447.367.47-.124 1.04-.091 1.447-.367zm-3.97 1.009c-.85.081-1.65.471-2.511.511l.142.09c.782-.197 1.64-.262 2.37-.601zM149.886 64.56zm.244.685zM.075 68.573c-.163.41.03 1.317.133 1.738-.007-.581-.07-1.162-.133-1.738zm54.37 17.558zm.01 1.711zm.104 1.713zm.308 2.557zm.379 2.107zM7.626 95.26c-.341 1.136-.33 2.613-.212 3.698-.05-1.239.075-2.47.213-3.698zm47.99.62zm-22.49 18.307c.554.186 1.48.297 2.192.356a12.01 12.01 0 0 0-2.192-.356zm26.937 4.462c1.634.369 3.464.664 5.188.869a87.721 87.721 0 0 0-5.188-.869zm25.188 4.178c.589.245 1.449.345 2.15.372-.7-.172-1.43-.285-2.15-.372z"/><path fill="#f5edd7" d="M81.554-.001c-1.478.275-2.83.976-4.272 1.424C57.268 8.344 37.388 15.16 17.347 22.059c-.259.089-.69-.246-.857-.062.188.059.38.108.574.147.47-.008.903-.19 1.339-.342C39.33 14.59 60.286 7.456 81.183.152c.839-.025 1.668.161 2.502.244 22.336 2.843 44.629 6.032 66.956 8.92.822-.406 1.715.095 2.126.83-.18-.932-1.397-1.3-2.189-.918-22.965-3.077-46.031-6.293-69.024-9.23zm67.513 16.791c-24.17 8.94-48.306 17.974-72.47 26.935-.52 5.14.252 10.353 1.487 15.355.008.209.22.206.378.231 23.992-9.056 47.977-18.131 71.97-27.183.684-.317 1.422.03 1.9.53-.315-.637-1.174-.916-1.828-.661-.298.073-.11-.325-.285-.47-1.584-4.738-2.106-9.765-1.154-14.737zM13.47 26.17c-.518.628-.76 1.523-1.014 2.308.396-.731.68-1.541 1.014-2.307zm2.405 3.044c-.091 0-.17.093-.25.132-1.807 4.659-1.102 9.94.877 14.429.151.234.123.674.518.645 19.994 4.894 39.987 9.796 59.986 14.673.168-.022.466-.037.338-.28-1.243-4.9-1.74-9.967-1.554-15.016C55.841 38.9 35.871 34.082 15.914 29.22a.134.134 0 0 0-.04-.006zm-3.777.41c-1.385 4.446-.869 9.55.802 13.865-1.509-4.43-1.988-9.3-.802-13.865zm140.027 5.445c-.991.609-2.188.798-3.195 1.359 1.069-.385 2.353-.635 3.195-1.36zm-3.408 1.421c-1.788.613-3.6 1.28-5.328 2.027 1.733-.567 3.64-1.266 5.328-2.027zm-10.091 3.821c-.673.164-1.316.452-1.959.71.653-.119 1.396-.357 1.959-.71zm-1.959.71c-.859.302-1.734.588-2.541 1.006.709.08 1.4.282 2.118.307-.511-.222-1.212-.215-1.797-.365.636-.382 1.621-.453 2.22-.948zm.005 1.381c.937.243 1.929.368 2.895.513-.863-.31-1.958-.373-2.895-.513zm7.14 1.244c.541.156 1.106.213 1.665.279-.448-.247-1.134-.241-1.665-.28zm3.329.56c.532.145 1.095.239 1.65.298-.428-.24-1.124-.26-1.65-.298zm-133.672.81c.23.857.712 1.673 1.176 2.43.65.213 1.514.538 2.153.506-.648-.312-1.436-.26-2.083-.576-.518-.726-.778-1.615-1.246-2.36zm6.562 3.734c1.149.497 2.623.582 3.844 1.079.125 0 .245-.035.364-.067a81.813 81.813 0 0 0-4.208-1.012zm3.542 1.144c-.58.082-1.24.216-1.73.443.568-.139 1.218-.155 1.73-.443zm-2.005.524c-.604.021-1.63.364-2.261.57.753-.165 1.553-.25 2.26-.57zm-4.495 1.146c-.868.125-1.812.346-2.594.65.862-.188 1.784-.327 2.594-.65zm-4.54 1.15c-.48.068-1.032.128-1.446.367.47-.125 1.04-.091 1.447-.368zm136.544.085C118.008 63.197 86.97 73.692 55.912 84.113c-.3.104-.814.177-.69.623-.485 4.544.574 9.07 1.605 13.44.197.08.4.124.616.11 31.03-10.722 62.064-21.434 93.091-32.156a10.122 10.122 0 0 1-.718-1.8c-.337-1.222-.644-2.456-.767-3.72-.357-2.538-.134-5.115.189-7.646a2.074 2.074 0 0 0-.164-.165zm-140.51.923c-.852.082-1.65.472-2.513.512.037.022.107.067.143.09.781-.197 1.64-.262 2.37-.602zm-4.334 9.154c-2.154 5.458-.432 11.857 3.36 16.147 16.177 6.32 32.382 12.576 48.562 18.89-1.21-4.281-1.997-8.96-1.615-13.486-16.71-7.296-33.577-14.29-50.307-21.55zm151.705.303c-1.3 1.063-2.431 2.412-3.814 3.325.705.848.623 2.3-.4 2.851-1.537.568-3.095 1.08-4.643 1.619.072.137.058.272-.073.366-13.599 12.515-27.263 24.977-40.842 37.503-1.109 4.49-.969 9.306.523 13.695 16.947-16.018 33.74-32.214 50.676-48.248-.455.024-.303-.324-.497-.639-1.352-3.299-1.36-6.995-.93-10.472zM.063 68.574c-.163.41.03 1.316.133 1.737-.007-.581-.07-1.162-.133-1.737zm10.864 26.682c-1.066 4.255.572 8.668 2.957 12.172 30.628 5.11 61.269 10.16 91.894 15.292a.389.389 0 0 0 .219-.097c-1.5-4.36-1.504-9.124-.647-13.622-15.66-2.28-31.326-4.56-46.991-6.829-.232-.102-.628-.006-.781-.256-.444.134-.847-.072-1.248-.227-.132.074-.272.174-.432.121-14.99-2.183-29.99-4.321-44.97-6.554zm-3.312.005c-.342 1.136-.33 2.613-.213 3.698-.05-1.24.075-2.47.213-3.698zm25.499 18.927c.555.185 1.48.297 2.192.355a12.01 12.01 0 0 0-2.192-.355zm26.937 4.462c1.635.368 3.464.663 5.188.868a87.74 87.74 0 0 0-5.188-.868zm25.188 4.169c.59.245 1.45.345 2.15.372-.699-.173-1.43-.285-2.15-.372z"/><g aria-label="Example Public Library" style="font-weight:800;font-size:35.0002px;font-family:Prompt;-inkscape-font-specification:&quot;Prompt, Ultra-Bold&quot;;text-align:center;letter-spacing:2.81251px;baseline-shift:baseline;white-space:pre;fill:#fff;stroke-width:4.54963;stroke-linecap:round;stroke-linejoin:round;paint-order:stroke fill markers"><path d="M168.553 4.554h16.975V9h-11.655v5.67h8.575v4.27h-8.575v5.636h11.655v4.445h-16.975zm28.012 15.786-6.72-8.12h5.915l3.745 4.55 3.78-4.55h5.915l-6.755 8.12 7.21 8.68h-5.845l-4.305-5.145-4.27 5.145h-5.88zm23.568 9.205q-3.08 0-5.04-1.54-1.925-1.575-1.925-4.27 0-2.8 1.855-4.34 1.855-1.575 5.25-1.575 1.505 0 2.87.315 1.365.315 2.415.875v-.42q0-1.575-1.12-2.31-1.12-.735-3.43-.735-3.08 0-5.67 1.155v-3.85q1.12-.49 2.905-.805 1.785-.35 3.57-.35 4.55 0 6.79 1.89 2.24 1.855 2.24 5.215v10.22h-4.97v-1.54q-2.135 2.065-5.74 2.065zm1.435-3.5q1.295 0 2.345-.49 1.05-.49 1.645-1.365v-1.68q-1.785-1.19-3.92-1.19-1.47 0-2.275.63-.77.595-.77 1.785 0 1.12.77 1.715t2.205.595zm15.587-13.825h4.936v2.03q1.085-1.225 2.52-1.89 1.435-.665 2.975-.665 1.925 0 3.08.63 1.155.595 1.82 1.785 1.085-1.155 2.625-1.785 1.575-.63 3.115-.63 3.22 0 4.585 1.645 1.4 1.645 1.4 4.76v10.92h-5.04V18.835q0-1.61-.63-2.31t-2.03-.7q-1.96 0-3.15 1.54.07 1.12.07 1.82v9.835h-5.075V18.66q0-1.54-.56-2.17-.525-.665-1.855-.665-2.065 0-3.675 2.345v10.85h-5.11zm33.368 0h5.11v1.855q2.555-2.38 6.3-2.38 2.625 0 4.62 1.12 2.03 1.085 3.15 3.115 1.12 1.995 1.12 4.655 0 2.625-1.12 4.655-1.12 2.03-3.15 3.185-1.995 1.12-4.62 1.12-1.785 0-3.395-.525t-2.73-1.505v9.17h-5.285zm10.08 13.195q2.135 0 3.465-1.33 1.365-1.33 1.365-3.5t-1.365-3.465q-1.33-1.295-3.465-1.295-1.645 0-2.94.875t-1.855 2.31v3.185q.525 1.47 1.82 2.345 1.33.875 2.975.875zm16.008-22.26h5.285V29.02h-5.285zm21.432 26.39q-4.83 0-7.595-2.31-2.765-2.345-2.765-6.545 0-4.165 2.45-6.58 2.485-2.415 7.07-2.415 3.01 0 5.11 1.12 2.1 1.12 3.186 3.115 1.085 1.96 1.085 4.445v2.135h-13.86q.56 3.22 6.02 3.22 1.61 0 3.324-.28 1.716-.28 2.976-.77v3.71q-1.226.525-3.15.84-1.926.315-3.85.315zm3.535-10.465q-.105-1.68-1.26-2.59-1.155-.945-3.185-.945-1.995 0-3.15.945-1.155.945-1.26 2.59zM168.553 48.305h10.29q4.165 0 6.65 2.205 2.485 2.17 2.485 6.055 0 3.99-2.485 6.125-2.45 2.135-6.65 2.135h-4.97v7.945h-5.32zm9.52 12.075q4.515 0 4.515-3.815 0-2.135-1.225-2.975-1.19-.84-3.29-.84h-4.2v7.63zM198.7 73.295q-3.43 0-5.145-1.855-1.715-1.89-1.715-5.005V55.97h5.285v9.905q0 3.29 3.045 3.29 1.33 0 2.485-.63 1.155-.63 1.925-1.89V55.97h5.285v16.8h-5.11v-2.03q-1.12 1.295-2.73 1.925-1.575.63-3.325.63zm29.063 0q-1.96 0-3.5-.56-1.505-.56-2.8-1.785v1.82h-5.11V46.905h5.285v10.57q1.12-.98 2.73-1.505 1.61-.525 3.395-.525 2.625 0 4.62 1.155 2.03 1.12 3.15 3.15t1.12 4.655q0 2.66-1.12 4.69-1.12 1.995-3.15 3.115-1.995 1.085-4.62 1.085zm-1.33-4.095q2.135 0 3.465-1.295 1.365-1.33 1.365-3.5t-1.365-3.5q-1.33-1.33-3.465-1.33-1.645 0-2.975.91-1.295.875-1.82 2.31v3.185q.56 1.47 1.855 2.345 1.295.875 2.94.875zm16.008-22.295h5.285V72.77h-5.285zm14.677 6.475q-1.225 0-2.065-.805-.84-.805-.84-2.03 0-1.19.84-1.995.84-.84 2.065-.84t2.065.84q.84.805.84 1.995 0 1.225-.84 2.03-.84.805-2.065.805zm-2.66 2.59h5.32v16.8h-5.32zm21.258 17.325q-4.55 0-7.245-2.31-2.695-2.345-2.695-6.58 0-4.235 2.695-6.58 2.73-2.38 7.28-2.38 4.13 0 6.58 1.54v4.165q-1.12-.805-2.625-1.19-1.47-.385-3.115-.385-2.45 0-3.92 1.19-1.47 1.19-1.47 3.64t1.435 3.64q1.47 1.155 3.92 1.155 3.395 0 5.985-1.645v4.13q-2.59 1.61-6.825 1.61zM168.553 92.055h5.32v20.02h11.2v4.445h-16.52zm24.512 5.075q-1.225 0-2.065-.805-.84-.805-.84-2.03 0-1.19.84-1.995.84-.84 2.065-.84t2.065.84q.84.805.84 1.995 0 1.225-.84 2.03-.84.805-2.065.805zm-2.66 2.59h5.32v16.8h-5.32zm23.428 17.325q-1.96 0-3.5-.56-1.505-.56-2.8-1.785v1.82h-5.11V90.655h5.285v10.57q1.12-.98 2.73-1.505 1.61-.525 3.395-.525 2.625 0 4.62 1.155 2.03 1.12 3.15 3.15t1.12 4.655q0 2.66-1.12 4.69-1.12 1.995-3.15 3.115-1.995 1.085-4.62 1.085zm-1.33-4.095q2.135 0 3.465-1.295 1.365-1.33 1.365-3.5t-1.365-3.5q-1.33-1.33-3.465-1.33-1.645 0-2.975.91-1.295.875-1.82 2.31v3.185q.56 1.47 1.855 2.345 1.295.875 2.94.875zm16.008-13.23h5.11v2.415q1.015-1.225 2.835-1.855 1.82-.665 4.13-.665v4.025q-2.415 0-4.27.735-1.82.735-2.52 2.24v9.905h-5.285zm21.817 17.325q-3.08 0-5.04-1.54-1.925-1.575-1.925-4.27 0-2.8 1.855-4.34 1.855-1.575 5.25-1.575 1.505 0 2.87.315 1.365.315 2.415.875v-.42q0-1.575-1.12-2.31-1.12-.735-3.43-.735-3.08 0-5.67 1.155v-3.85q1.12-.49 2.905-.805 1.785-.35 3.57-.35 4.55 0 6.79 1.89 2.24 1.855 2.24 5.215v10.22h-4.97v-1.54q-2.135 2.065-5.74 2.065zm1.435-3.5q1.295 0 2.345-.49 1.05-.49 1.645-1.365v-1.68q-1.785-1.19-3.92-1.19-1.47 0-2.275.63-.77.595-.77 1.785 0 1.12.77 1.715t2.205.595zm15.588-13.825h5.11v2.415q1.015-1.225 2.835-1.855 1.82-.665 4.13-.665v4.025q-2.415 0-4.27.735-1.82.735-2.52 2.24v9.905h-5.285zm21.222 23.73q-1.05 0-2.17-.14-1.085-.14-1.645-.385v-3.955q1.015.385 2.24.385 1.26 0 1.89-.56.665-.56 1.085-1.75l.56-1.435-7.28-15.89h5.32l4.76 11.585 4.515-11.585h5.285l-7.14 17.955q-1.19 2.975-2.94 4.375t-4.48 1.4z" style="font-weight:600;-inkscape-font-specification:&quot;Prompt Semi-Bold&quot;"/></g></svg>