<?xml version="1.0" encoding="UTF-8" standalone="no"?>
<svg
   xml:space="preserve"
   width="111.5"
   height="50"
   version="1.1"
   id="svg13"
   sodipodi:docname="SPL_logo_horizontal_white.svg"
   xmlns:inkscape="http://www.inkscape.org/namespaces/inkscape"
   xmlns:sodipodi="http://sodipodi.sourceforge.net/DTD/sodipodi-0.dtd"
   xmlns="http://www.w3.org/2000/svg"
   xmlns:svg="http://www.w3.org/2000/svg"><sodipodi:namedview
     id="namedview15"
     pagecolor="#ffffff"
     bordercolor="#000000"
     borderopacity="0.25"
     inkscape:showpageshadow="2"
     inkscape:pageopacity="0.0"
     inkscape:pagecheckerboard="0"
     inkscape:deskcolor="#d1d1d1"
     showgrid="false" /><defs
     id="defs5"><clipPath
       clipPathUnits="userSpaceOnUse"
       id="clipPath858"><g
         id="g862"><path
           d="M -19.576,-23.093951 H 129.0824 V 72.704 H -19.576 Z"
           id="path860"
           style="stroke-width:0.41294" /></g></clipPath><clipPath
       clipPathUnits="userSpaceOnUse"
       id="clipPath864"><g
         id="g868"><path
           d="M -19.576,-23.093951 H 129.0824 V 72.704 H -19.576 Z"
           id="path866"
           style="stroke-width:0.41294" /></g></clipPath></defs><path
     fill="#4f4c4d"
     d="M 45.424885,9.7760734 C 45.254341,9.5609317 45.023095,9.4015368 44.731559,9.2983018 44.439611,9.1950668 44.163767,9.1434493 43.903614,9.1434493 c -0.152787,0 -0.309705,0.018169 -0.470751,0.053682 a 1.796289,1.796289 0 0 0 -0.457951,0.1684795 0.99229482,0.99229482 0 0 0 -0.34976,0.3026851 c -0.09002,0.1259467 -0.134618,0.2783215 -0.134618,0.4579511 0,0.286993 0.107364,0.50709 0.322919,0.659465 0.215142,0.152375 0.486443,0.282451 0.814318,0.390228 a 27.33126,27.33126 0 0 0 1.056713,0.322919 4.3730346,4.3730346 0 0 1 1.056713,0.457951 2.4958094,2.4958094 0 0 1 0.814318,0.794083 c 0.215555,0.332417 0.323332,0.776327 0.323332,1.33297 0,0.52939 -0.09911,0.991469 -0.296078,1.386653 A 2.8166637,2.8166637 0 0 1 45.781666,16.4529 c -0.336547,0.260565 -0.726775,0.453408 -1.171511,0.578942 a 5.1468842,5.1468842 0 0 1 -1.406474,0.188301 c -0.61941,0 -1.193809,-0.09415 -1.723198,-0.282451 -0.52939,-0.188714 -1.022853,-0.493876 -1.480803,-0.915488 l 1.49443,-1.642263 a 2.1840397,2.1840397 0 0 0 0.814317,0.666486 2.326504,2.326504 0 0 0 1.016246,0.235375 c 0.170544,0 0.343566,-0.02023 0.518652,-0.0607 0.175087,-0.04047 0.332004,-0.100757 0.471165,-0.181693 0.138748,-0.08052 0.251067,-0.183759 0.336546,-0.309292 0.08507,-0.125947 0.128011,-0.274193 0.128011,-0.444737 0,-0.286993 -0.110255,-0.513284 -0.329939,-0.679699 -0.220097,-0.165589 -0.495941,-0.307227 -0.827945,-0.423676 -0.332416,-0.116862 -0.691261,-0.233312 -1.07736,-0.350174 -0.385686,-0.116449 -0.744531,-0.273779 -1.076535,-0.471164 a 2.5911985,2.5911985 0 0 1 -0.827944,-0.78087 c -0.220097,-0.322919 -0.329939,-0.749073 -0.329939,-1.278875 0,-0.5112196 0.100757,-0.9600854 0.303098,-1.3461843 a 2.9203117,2.9203117 0 0 1 0.80771,-0.9691701 3.5219653,3.5219653 0 0 1 1.164078,-0.585549 C 43.024465,7.2699405 43.47746,7.204696 43.944083,7.204696 a 5.3351848,5.3351848 0 0 1 1.561326,0.2291817 3.6016627,3.6016627 0 0 1 1.359811,0.7672425 z m 9.311797,0.4418456 -1.157883,2.961606 h 2.328981 z m -0.80771,-2.7728919 h 1.736825 l 4.145918,9.5306549 h -2.369037 l -0.821337,-2.019276 h -3.701595 l -0.794496,2.019276 h -2.315355 z m 9.467062,0.00206 h 2.0998 v 7.5923149 h 3.890721 v 1.93834 h -5.990521 z m 9.613243,0 h 2.0998 v 9.5306549 h -2.0998 z m 6.648334,0 h 2.853829 l 4.05218,6.6231439 h 0.02684 V 7.4470918 h 2.0998 v 9.5306552 h -2.745638 l -4.159958,-6.784604 h -0.02684 v 6.784604 h -2.100213 z m 17.496268,2.7708269 -1.157884,2.961606 h 2.328982 z m -0.80771,-2.7728916 h 1.736825 l 4.145916,9.5306546 h -2.369035 l -0.821338,-2.019276 h -3.701594 l -0.794496,2.019276 H 92.227092 Z M 42.389776,24.398279 h 1.40028 c 0.188301,0 0.369994,-0.01776 0.545081,-0.05368 0.175086,-0.03593 0.332003,-0.09663 0.471164,-0.182107 0.138748,-0.08507 0.251068,-0.201928 0.336133,-0.34976 0.08548,-0.148246 0.128425,-0.334482 0.128425,-0.558708 0,-0.242396 -0.05657,-0.437716 -0.168893,-0.585549 a 1.1165898,1.1165898 0 0 0 -0.430696,-0.343566 1.8541006,1.8541006 0 0 0 -0.585549,-0.154852 6.132159,6.132159 0 0 0 -0.61941,-0.03345 h -1.076535 z m -2.100212,-4.038553 h 3.540547 c 0.493463,0 0.960086,0.04501 1.399867,0.134618 0.439781,0.09002 0.823402,0.244873 1.151276,0.464558 0.327462,0.220097 0.587614,0.516175 0.78087,0.888233 0.19243,0.372885 0.289058,0.841572 0.289058,1.406887 0,0.556643 -0.08961,1.023265 -0.269237,1.399867 -0.179629,0.377014 -0.426154,0.677634 -0.739988,0.901861 -0.314248,0.224639 -0.687133,0.383621 -1.117829,0.477771 a 6.5223873,6.5223873 0 0 1 -1.399867,0.141639 h -1.534485 v 3.715221 h -2.100212 z m 18.919259,5.855489 c 0,0.565315 -0.08548,1.086032 -0.25561,1.561326 a 3.4302926,3.4302926 0 0 1 -0.760636,1.238407 c -0.336546,0.350173 -0.756093,0.623952 -1.258641,0.821338 -0.502961,0.196972 -1.08149,0.296078 -1.736413,0.296078 -0.66442,0 -1.247491,-0.09911 -1.750039,-0.296078 C 52.944523,29.6389 52.524976,29.365121 52.188843,29.014948 A 3.4245114,3.4245114 0 0 1 51.428207,27.776541 C 51.257663,27.301247 51.172184,26.78053 51.172184,26.215215 v -5.855902 h 2.100213 v 5.774966 c 0,0.296078 0.04707,0.57027 0.141226,0.821337 0.09415,0.251068 0.226704,0.4691 0.397248,0.652858 0.170544,0.183759 0.374536,0.327462 0.61239,0.430697 0.23744,0.103235 0.495528,0.154852 0.774262,0.154852 0.277909,0 0.533519,-0.05162 0.767243,-0.154852 0.233311,-0.103235 0.434826,-0.246938 0.60537,-0.430697 0.170544,-0.183758 0.303511,-0.40179 0.397248,-0.652858 0.09456,-0.251067 0.141639,-0.525259 0.141639,-0.821337 v -5.774966 h 2.0998 z m 6.631816,1.895394 h 1.884245 c 0.161873,0 0.32581,-0.01776 0.491812,-0.05368 0.165589,-0.03593 0.316312,-0.09869 0.45093,-0.1883 0.134619,-0.09002 0.244048,-0.20647 0.329939,-0.350174 0.08507,-0.143703 0.127599,-0.318789 0.127599,-0.525259 0,-0.224227 -0.05616,-0.405507 -0.168067,-0.545081 A 1.0744699,1.0744699 0 0 0 68.533008,26.131803 2.174542,2.174542 0 0 0 67.98132,25.98397 4.0625037,4.0625037 0 0 0 67.429219,25.94309 h -1.58858 z m 0,-3.94399 h 1.521271 c 0.161459,0 0.320854,-0.01817 0.477772,-0.0541 0.156917,-0.03592 0.298142,-0.09415 0.424089,-0.174673 0.125534,-0.08094 0.226291,-0.188714 0.303098,-0.323332 0.07598,-0.134619 0.113971,-0.296078 0.113971,-0.484792 0,-0.196972 -0.04253,-0.360909 -0.128011,-0.490986 -0.08507,-0.130076 -0.194908,-0.231246 -0.329526,-0.303098 -0.134619,-0.07185 -0.287406,-0.123056 -0.457538,-0.154852 a 2.7501804,2.7501804 0 0 0 -0.498418,-0.04707 h -1.426708 z m -2.100213,-3.809784 h 3.554175 c 0.41294,0 0.827531,0.02932 1.245014,0.08754 0.417482,0.05864 0.792019,0.175087 1.124023,0.350173 0.332003,0.175087 0.60124,0.419547 0.80771,0.733382 0.20647,0.314247 0.309705,0.73173 0.309705,1.252034 0,0.538474 -0.15031,0.984862 -0.45093,1.339164 -0.300621,0.354716 -0.697869,0.608261 -1.191745,0.760636 v 0.02725 a 2.7344887,2.7344887 0 0 1 0.855199,0.262217 c 0.255609,0.130076 0.475294,0.296078 0.659465,0.498005 0.184171,0.201928 0.324984,0.437717 0.424089,0.706954 a 2.484247,2.484247 0 0 1 0.148246,0.861393 c 0,0.50296 -0.107778,0.922095 -0.323332,1.259054 a 2.539581,2.539581 0 0 1 -0.834552,0.813904 3.6508025,3.6508025 0 0 1 -1.150864,0.444324 6.1437213,6.1437213 0 0 1 -1.272268,0.134618 h -3.903935 z m 11.494598,0.0029 h 2.0998 v 7.592314 h 3.890721 v 1.938341 h -5.990521 z m 9.613243,0 h 2.0998 v 9.530655 h -2.0998 z m 12.891987,2.47351 c -0.20647,-0.251067 -0.460015,-0.444323 -0.760635,-0.578942 -0.300621,-0.134618 -0.648316,-0.201927 -1.043087,-0.201927 a 2.6217561,2.6217561 0 0 0 -1.097181,0.229181 2.6180396,2.6180396 0 0 0 -0.87502,0.639231 2.9818397,2.9818397 0 0 0 -0.578942,0.975778 c -0.139161,0.377014 -0.208535,0.785825 -0.208535,1.225193 0,0.448865 0.06937,0.859328 0.208535,1.2318 0.139161,0.372472 0.329939,0.695391 0.572335,0.96917 0.242395,0.273779 0.526911,0.486856 0.854785,0.639231 a 2.4681424,2.4681424 0 0 0 1.056714,0.229182 c 0.430696,0 0.812253,-0.09002 1.143844,-0.269237 a 2.2806676,2.2806676 0 0 0 0.82175,-0.754029 l 1.749627,1.30613 c -0.403855,0.564902 -0.915488,0.982384 -1.534485,1.251208 a 4.7430288,4.7430288 0 0 1 -1.911499,0.404268 c -0.745357,0 -1.431663,-0.116862 -2.059745,-0.350173 -0.628495,-0.233311 -1.171098,-0.567793 -1.629048,-1.002618 -0.457538,-0.435239 -0.813905,-0.962564 -1.069928,-1.581974 -0.25561,-0.618997 -0.383621,-1.310258 -0.383621,-2.072958 0,-0.7627 0.128011,-1.453962 0.383621,-2.073372 0.256023,-0.618997 0.61239,-1.145909 1.069928,-1.58156 0.45795,-0.435239 1.000553,-0.769307 1.629048,-1.002619 0.628082,-0.233311 1.314388,-0.350173 2.059745,-0.350173 0.268824,0 0.549623,0.02478 0.841159,0.07392 0.291535,0.04955 0.578941,0.128011 0.861392,0.235788 a 3.8419938,3.8419938 0 0 1 0.814731,0.430697 3.248186,3.248186 0 0 1 0.699933,0.659465 z M 40.287912,33.269882 h 2.0998 v 7.592315 h 3.89072 v 1.93834 h -5.99052 z m 9.613243,0 h 2.0998 v 9.530655 h -2.0998 z m 8.750199,7.754187 h 1.884245 c 0.161872,0 0.325809,-0.01776 0.491811,-0.05409 0.165589,-0.03551 0.316312,-0.09828 0.450931,-0.188301 0.134618,-0.08961 0.244047,-0.20647 0.329939,-0.350173 0.08507,-0.14329 0.127598,-0.318377 0.127598,-0.524847 0,-0.224226 -0.05616,-0.405507 -0.168066,-0.54508 a 1.0744699,1.0744699 0 0 0 -0.42409,-0.316312 2.1576115,2.1576115 0 0 0 -0.551687,-0.147833 4.0625037,4.0625037 0 0 0 -0.552101,-0.04088 h -1.58858 z m 0,-3.944403 h 1.521271 c 0.161459,0 0.320854,-0.01776 0.477771,-0.05368 0.156917,-0.03593 0.298143,-0.09415 0.42409,-0.174674 0.125533,-0.08135 0.226291,-0.189126 0.303097,-0.323745 0.07598,-0.134205 0.113972,-0.295665 0.113972,-0.484378 0,-0.196973 -0.04253,-0.361323 -0.128011,-0.491399 -0.08507,-0.129663 -0.194908,-0.230833 -0.329527,-0.302685 -0.134618,-0.07185 -0.287406,-0.123056 -0.457537,-0.154852 a 2.7501804,2.7501804 0 0 0 -0.498419,-0.04707 h -1.426707 z m -2.100213,-3.809371 h 3.554174 c 0.41294,0 0.827532,0.02932 1.245014,0.08754 0.417483,0.05823 0.792019,0.174674 1.124023,0.34976 0.332004,0.175087 0.601241,0.41996 0.807711,0.733795 0.20647,0.314247 0.309705,0.731316 0.309705,1.252034 0,0.538473 -0.15031,0.984862 -0.450931,1.339164 -0.30062,0.354715 -0.697868,0.608261 -1.191745,0.760636 v 0.02684 a 2.746051,2.746051 0 0 1 0.855199,0.262629 c 0.25561,0.130077 0.475294,0.296078 0.659465,0.498006 0.184172,0.201928 0.324984,0.437716 0.42409,0.706953 a 2.4825953,2.4825953 0 0 1 0.148245,0.861393 c 0,0.502961 -0.107777,0.921682 -0.323332,1.258641 -0.215555,0.336546 -0.493463,0.607848 -0.834552,0.814318 -0.341088,0.20647 -0.725122,0.354715 -1.150863,0.444323 a 6.1718012,6.1718012 0 0 1 -1.272268,0.134619 h -3.903935 z m 13.551039,3.94399 h 1.238407 c 0.1883,0 0.387751,-0.007 0.599176,-0.02023 0.210599,-0.01363 0.401377,-0.0541 0.571922,-0.121405 0.170544,-0.0669 0.311769,-0.172609 0.424089,-0.315899 0.11232,-0.143703 0.16848,-0.345218 0.16848,-0.605783 0,-0.242396 -0.04997,-0.435239 -0.148246,-0.579355 A 0.99023012,0.99023012 0 0 0 72.578994,35.2425 c -0.152788,-0.07639 -0.327462,-0.128424 -0.524847,-0.154852 -0.197385,-0.02725 -0.390641,-0.04047 -0.578942,-0.04047 H 70.10218 Z m -2.100213,-3.944403 h 3.688793 a 6.483158,6.483158 0 0 1 1.379633,0.141638 c 0.435238,0.09415 0.816382,0.251068 1.144256,0.471165 0.327462,0.220097 0.587614,0.516175 0.78087,0.888234 0.19243,0.372472 0.289471,0.837029 0.289471,1.393259 0,0.673092 -0.175087,1.245427 -0.52526,1.716179 -0.34976,0.471577 -0.861393,0.770133 -1.534898,0.895254 l 2.423545,4.024926 H 73.131095 L 71.138659,38.991165 H 70.10218 v 3.809372 h -2.100213 z m 15.706586,2.773305 -1.157884,2.961605 h 2.328982 z m -0.807711,-2.773305 h 1.736826 l 4.145917,9.530655 h -2.369036 l -0.821338,-2.018864 h -3.701594 l -0.794497,2.018864 h -2.315354 z m 11.527633,3.944403 h 1.238407 c 0.188301,0 0.387751,-0.007 0.599176,-0.02023 0.2106,-0.01363 0.401378,-0.0541 0.571922,-0.121405 0.170544,-0.0669 0.31177,-0.172609 0.424089,-0.315899 0.11232,-0.143703 0.16848,-0.345218 0.16848,-0.605783 0,-0.242396 -0.04997,-0.435239 -0.148245,-0.579355 A 0.99023012,0.99023012 0 0 0 96.905289,35.2425 c -0.152787,-0.07639 -0.327461,-0.128424 -0.524846,-0.154852 -0.197386,-0.02725 -0.390642,-0.04047 -0.578942,-0.04047 h -1.373026 z m -2.100213,-3.944403 h 3.688793 a 6.483158,6.483158 0 0 1 1.379633,0.141638 c 0.435239,0.09415 0.816382,0.251068 1.144257,0.471165 0.327461,0.220097 0.587613,0.516175 0.780869,0.888234 0.19243,0.372472 0.289471,0.837029 0.289471,1.393259 0,0.673092 -0.175086,1.245427 -0.52526,1.716179 -0.34976,0.471577 -0.861392,0.770133 -1.534898,0.895254 l 2.423545,4.024926 H 97.45739 l -1.992435,-3.809372 h -1.03648 v 3.809372 h -2.100213 z m 13.484968,5.465674 -3.58101,-5.465261 h 2.61143 l 2.01969,3.566975 2.14027,-3.566975 h 2.49044 l -3.58102,5.465261 v 4.065394 h -2.0998 z"
     style="fill:#fafafa;fill-opacity:1;stroke-width:0.41294"
     id="path7"
     clip-path="url(#clipPath864)" /><path
     fill="#45c3f3"
     d="m 31.801995,15.904103 c 0,-8.7824079 -7.119086,-15.90190646 -15.901494,-15.90190646 -8.7819947,0 -15.90190618,7.11949856 -15.90190618,15.90190646 0,7.886328 5.74234368,14.427711 13.27271718,15.681396 L 11.660846,13.071748 a 1.9280169,1.9280169 0 0 1 2.805515,-1.879703 l 4.638555,2.397529 a 1.926778,1.926778 0 0 1 1.031111,1.926778 l -2.492919,22.272745 c -0.0083,0.07433 -0.02808,0.144116 -0.0446,0.215555 L 27.902189,26.336206 h -0.0058 c 2.430565,-2.792713 3.905587,-6.438973 3.905587,-10.432103 M 19.878352,46.023121 c 0,2.196841 -1.78101,3.978264 -3.978264,3.978264 -2.19684,0 -3.978264,-1.781423 -3.978264,-3.978264 0,-2.196841 1.781424,-3.978264 3.978264,-3.978264 2.197254,0 3.978264,1.781423 3.978264,3.978264"
     style="fill:#fafafa;fill-opacity:1;stroke-width:0.41294"
     id="path9"
     clip-path="url(#clipPath858)" /></svg>
